<?xml version="1.0" encoding="utf-8"?>
<!-- Generator: Adobe Illustrator 16.0.0, SVG Export Plug-In . SVG Version: 6.00 Build 0)  -->
<!DOCTYPE svg PUBLIC "-//W3C//DTD SVG 1.1//EN" "http://www.w3.org/Graphics/SVG/1.1/DTD/svg11.dtd">
<svg version="1.1" id="Layer_1" xmlns="http://www.w3.org/2000/svg" xmlns:xlink="http://www.w3.org/1999/xlink" x="0px" y="0px"
	 width="512px" height="512px" viewBox="0 0 512 512" enable-background="new 0 0 512 512" xml:space="preserve">
<circle cx="256" cy="256" r="102.976"/>
<path d="M466.151,81.263c0-19.559-15.863-35.407-35.417-35.407c-8.874,0-16.959,3.284-23.176,8.678
	c-42.225-31.846-94.723-50.75-151.561-50.75c-139.07,0-252.213,113.145-252.213,252.218c0,139.069,113.145,252.216,252.216,252.216
	c139.072,0,252.214-113.146,252.214-252.216c0-56.839-18.904-109.336-50.746-151.565C462.862,98.225,466.151,90.135,466.151,81.263z
	 M255.998,499.73c-134.392,0-243.733-109.341-243.733-243.733c0-134.392,109.342-243.732,243.733-243.732
	c54.646,0,105.141,18.079,145.838,48.564c-4.091,5.775-6.516,12.816-6.516,20.431c0,19.559,15.855,35.407,35.409,35.407
	c7.618,0,14.65-2.427,20.427-6.515c30.488,40.694,48.567,91.19,48.567,145.842C499.729,390.39,390.395,499.73,255.998,499.73z"/>
</svg>
